<?xml version="1.0" encoding="iso-8859-1"?>
<!-- Generator: Adobe Illustrator 19.0.0, SVG Export Plug-In . SVG Version: 6.00 Build 0)  -->
<svg version="1.1" id="Capa_1" xmlns="http://www.w3.org/2000/svg" xmlns:xlink="http://www.w3.org/1999/xlink" x="0px" y="0px"
	 viewBox="0 0 436.907 436.907" style="enable-background:new 0 0 436.907 436.907;" xml:space="preserve">
<circle style="fill:#EFC84A;" cx="218.453" cy="218.453" r="218.453"/>
<path style="opacity:0.1;enable-background:new    ;" d="M436.907,218.453c0-4.437-0.341-9.216-0.341-13.653L323.243,91.477l0,0l0,0
	c-0.683-0.683-1.365-1.024-2.389-1.024h-1.707c-2.048,0-3.413,1.707-3.413,3.413v9.899l-11.947-11.947
	c-0.683-0.683-1.707-1.365-2.731-1.365h-1.707c-2.048,0-3.413,1.707-3.413,3.413v9.899l-12.629-11.947
	c-0.683-0.683-1.707-1.365-2.731-1.365h-1.707c-2.048,0-3.413,1.707-3.413,3.413v9.899l-12.288-11.947l0,0
	c-0.683-0.683-1.707-1.365-2.731-1.365h-1.707c-2.048,0-3.413,1.707-3.413,3.413v9.899l-11.947-11.947l0,0
	c-0.683-0.683-1.707-1.365-2.731-1.365h-1.707c-2.048,0-3.413,1.707-3.413,3.413v9.899l-11.947-11.947l0,0
	c-0.683-0.683-1.707-1.365-2.731-1.365h-1.707c-2.048,0-3.413,1.707-3.413,3.413v9.899l-12.288-12.288
	c-0.683-0.683-1.365-1.024-2.389-1.024h-1.707c-2.048,0-3.413,1.707-3.413,3.413v9.899l-12.288-12.288
	c-0.683-0.683-1.365-1.024-2.389-1.024h-1.707c-2.048,0-3.413,1.707-3.413,3.413v9.899l-11.947-11.947l0,0
	c-0.683-0.683-1.707-1.365-2.731-1.365h-1.707c-2.048,0-3.413,1.707-3.413,3.413v19.115h-11.947c-1.365,0-2.731,0.683-3.755,1.707
	l-8.192-8.192l0,0c-3.755-4.437-10.581-5.803-15.701-2.389l-5.12,3.413c-5.803,3.413-7.509,10.923-3.755,16.725l0.683,0.683
	l-6.485,4.096l-4.437,2.731l2.731,4.437l36.864,59.051l2.731,2.731v140.971l96.939,96.939
	C348.16,427.691,436.907,333.483,436.907,218.453z"/>
<path style="fill:#E1E6E9;" d="M340.992,339.285V118.101c0-2.731-2.389-5.12-5.12-5.12H143.019c-2.731,0-5.12,2.389-5.12,5.12
	v220.843h203.093V339.285z"/>
<g>
	<rect x="155.648" y="154.624" style="fill:#D5D6DB;" width="170.325" height="16.725"/>
	<rect x="155.648" y="185.344" style="fill:#D5D6DB;" width="170.325" height="16.725"/>
	<rect x="155.648" y="216.405" style="fill:#D5D6DB;" width="170.325" height="16.725"/>
	<rect x="155.648" y="247.467" style="fill:#D5D6DB;" width="170.325" height="16.725"/>
	<rect x="155.648" y="278.528" style="fill:#D5D6DB;" width="170.325" height="16.725"/>
</g>
<g>
	<path style="fill:#64798A;" d="M163.84,125.269V93.867c0-2.048-1.707-3.413-3.413-3.413h-1.707c-2.048,0-3.413,1.707-3.413,3.413
		v31.403c0,2.048,1.707,3.413,3.413,3.413h1.707C162.475,128.683,163.84,127.317,163.84,125.269z"/>
	<path style="fill:#64798A;" d="M183.979,125.269V93.867c0-2.048-1.707-3.413-3.413-3.413h-1.707c-2.048,0-3.413,1.707-3.413,3.413
		v31.403c0,2.048,1.707,3.413,3.413,3.413h1.707C182.272,128.683,183.979,127.317,183.979,125.269z"/>
	<path style="fill:#64798A;" d="M204.117,125.269V93.867c0-2.048-1.707-3.413-3.413-3.413h-1.707c-2.048,0-3.413,1.707-3.413,3.413
		v31.403c0,2.048,1.707,3.413,3.413,3.413h1.707C202.411,128.683,204.117,127.317,204.117,125.269z"/>
	<path style="fill:#64798A;" d="M223.915,125.269V93.867c0-2.048-1.707-3.413-3.413-3.413h-1.707c-2.048,0-3.413,1.707-3.413,3.413
		v31.403c0,2.048,1.707,3.413,3.413,3.413h1.707C222.549,128.683,223.915,127.317,223.915,125.269z"/>
	<path style="fill:#64798A;" d="M244.053,125.269V93.867c0-2.048-1.707-3.413-3.413-3.413h-1.707c-2.048,0-3.413,1.707-3.413,3.413
		v31.403c0,2.048,1.707,3.413,3.413,3.413h1.707C242.347,128.683,244.053,127.317,244.053,125.269z"/>
	<path style="fill:#64798A;" d="M263.851,125.269V93.867c0-2.048-1.707-3.413-3.413-3.413h-1.707c-2.048,0-3.413,1.707-3.413,3.413
		v31.403c0,2.048,1.707,3.413,3.413,3.413h1.707C262.485,128.683,263.851,127.317,263.851,125.269z"/>
	<path style="fill:#64798A;" d="M283.989,125.269V93.867c0-2.048-1.707-3.413-3.413-3.413h-1.707c-2.048,0-3.413,1.707-3.413,3.413
		v31.403c0,2.048,1.707,3.413,3.413,3.413h1.707C282.624,128.683,283.989,127.317,283.989,125.269z"/>
	<path style="fill:#64798A;" d="M304.128,125.269V93.867c0-2.048-1.707-3.413-3.413-3.413h-1.707c-2.048,0-3.413,1.707-3.413,3.413
		v31.403c0,2.048,1.707,3.413,3.413,3.413h1.707C302.421,128.683,304.128,127.317,304.128,125.269z"/>
	<path style="fill:#64798A;" d="M323.925,125.269V93.867c0-2.048-1.707-3.413-3.413-3.413h-1.707c-2.048,0-3.413,1.707-3.413,3.413
		v31.403c0,2.048,1.707,3.413,3.413,3.413h1.707C322.56,128.683,323.925,127.317,323.925,125.269z"/>
</g>
<g>
	
		<rect x="184.732" y="169.267" transform="matrix(-0.8486 0.529 -0.529 -0.8486 499.4776 348.1732)" style="fill:#3A556A;" width="30.378" height="152.573"/>
	<path style="fill:#3A556A;" d="M115.371,104.107l-5.461,3.413c-5.803,3.413-7.509,10.923-3.755,16.725l37.547,60.075l25.941-16.043
		l-37.547-60.075C128.683,102.4,121.173,100.693,115.371,104.107z"/>
</g>
<rect x="185.66" y="173.049" transform="matrix(-0.8486 0.529 -0.529 -0.8486 489.6284 358.5565)" style="fill:#64798A;" width="15.701" height="152.573"/>
<rect x="142.756" y="175.866" transform="matrix(-0.8486 0.529 -0.529 -0.8486 386.4594 246.6013)" style="fill:#FCD462;" width="30.378" height="5.461"/>
<g>
	
		<rect x="93.979" y="120.192" transform="matrix(-0.8486 0.529 -0.529 -0.8486 278.8253 166.0555)" style="fill:#F6C358;" width="43.349" height="5.461"/>
	
		<rect x="115.424" y="124.828" transform="matrix(-0.8486 0.529 -0.529 -0.8486 304.3197 237.6626)" style="fill:#F6C358;" width="5.461" height="75.092"/>
</g>
<path style="fill:#FCD462;" d="M255.317,334.165c-1.365,1.024-2.731,2.048-3.755,3.413l-24.235-19.456l25.941-16.043l6.827,30.037
	C258.389,332.459,257.024,333.141,255.317,334.165z"/>
<path style="fill:#3A556A;" d="M263.509,346.112l-3.072-13.995c-5.12,0.683-8.533,5.461-8.533,5.461l11.264,8.875L263.509,346.112z"
	/>
<g>
</g>
<g>
</g>
<g>
</g>
<g>
</g>
<g>
</g>
<g>
</g>
<g>
</g>
<g>
</g>
<g>
</g>
<g>
</g>
<g>
</g>
<g>
</g>
<g>
</g>
<g>
</g>
<g>
</g>
</svg>
